<?xml version="1.0" encoding="UTF-8" standalone="no"?>
<svg
   width="371"
   height="169"
   version="1.1"
   viewBox="0 0 371 169"
   id="svg1521"
   sodipodi:docname="candidate.svg"
   inkscape:version="1.2.2 (b0a8486541, 2022-12-01)"
   xmlns:inkscape="http://www.inkscape.org/namespaces/inkscape"
   xmlns:sodipodi="http://sodipodi.sourceforge.net/DTD/sodipodi-0.dtd"
   xmlns="http://www.w3.org/2000/svg"
   xmlns:svg="http://www.w3.org/2000/svg"
   xmlns:rdf="http://www.w3.org/1999/02/22-rdf-syntax-ns#"
   xmlns:cc="http://creativecommons.org/ns#"
   xmlns:dc="http://purl.org/dc/elements/1.1/">
  <defs
     id="defs1525" />
  <sodipodi:namedview
     id="namedview1523"
     pagecolor="#ffffff"
     bordercolor="#666666"
     borderopacity="1.0"
     inkscape:showpageshadow="2"
     inkscape:pageopacity="0.0"
     inkscape:pagecheckerboard="0"
     inkscape:deskcolor="#d1d1d1"
     inkscape:document-units="mm"
     showgrid="false"
     inkscape:zoom="2.8284271"
     inkscape:cx="146.19433"
     inkscape:cy="155.20994"
     inkscape:current-layer="svg1521"
     showborder="false" />
  <metadata
     id="metadata1449">
    <rdf:RDF>
      <cc:Work
         rdf:about="">
        <dc:format>image/svg+xml</dc:format>
        <dc:type
           rdf:resource="http://purl.org/dc/dcmitype/StillImage" />
        <dc:creator>
          <cc:Agent>
            <dc:title>Benjamin Francis Goodger</dc:title>
          </cc:Agent>
        </dc:creator>
        <dc:rights>
          <cc:Agent>
            <dc:title />
          </cc:Agent>
        </dc:rights>
      </cc:Work>
    </rdf:RDF>
  </metadata>
  <rect
     style="fill:#ffffff;stroke:#000000;stroke-width:1;stroke-dasharray:none;stroke-opacity:1;paint-order:markers stroke fill;stop-color:#000000"
     id="rect1099"
     width="370"
     height="168"
     x="0"
     y="0"
     transform="translate(0.5,0.5)" />
  <g
     transform="matrix(0.99709605,0,0,0.99385224,-48.845228,-134.40865)"
     id="g1519"
     style="stroke-width:1.00454">
    <g
       transform="translate(-37.143,-10.476)"
       aria-label="Goodger, B.F. (Ben) (m)"
       id="g1493"
       style="stroke-width:1.00454">
      <path
         d="m 117.77,189.83 q 2.2461,0 4.3555,-0.64453 2.1094,-0.66406 3.2617,-1.6797 v -3.8086 h -6.7188 v -4.2578 h 11.992 v 10.117 q -2.1875,2.2461 -5.7031,3.5156 -3.4961,1.2695 -7.3438,1.2695 -6.7188,0 -10.332,-3.7109 -3.6133,-3.7305 -3.6133,-10.566 0,-6.7969 3.6328,-10.41 3.6328,-3.6328 10.449,-3.6328 9.6875,0 12.324,7.168 l -5.3125,1.6016 q -0.85938,-2.0898 -2.6953,-3.1641 -1.8359,-1.0742 -4.3164,-1.0742 -4.0625,0 -6.1719,2.4609 -2.1094,2.4609 -2.1094,7.0508 0,4.668 2.168,7.2266 2.1875,2.5391 6.1328,2.5391 z"
         id="path1453"
         style="stroke-width:1.00454" />
      <path
         d="m 156.01,183.36 q 0,5.1367 -2.8516,8.0664 -2.8516,2.9102 -7.8906,2.9102 -4.9414,0 -7.7539,-2.9297 -2.8125,-2.9297 -2.8125,-8.0469 0,-5.0977 2.8125,-8.0078 2.8125,-2.9297 7.8711,-2.9297 5.1758,0 7.8906,2.832 2.7344,2.8125 2.7344,8.1055 z m -5.7422,0 q 0,-3.7695 -1.2305,-5.4688 -1.2305,-1.6993 -3.5742,-1.6992 -5,0 -5,7.168 0,3.5352 1.2109,5.3906 1.2305,1.8359 3.5352,1.8359 5.0586,0 5.0586,-7.2266 z"
         id="path1455"
         style="stroke-width:1.00454" />
      <path
         d="m 180.44,183.36 q 0,5.1367 -2.8516,8.0664 -2.8516,2.9102 -7.8906,2.9102 -4.9414,0 -7.7539,-2.9297 -2.8125,-2.9297 -2.8125,-8.0469 0,-5.0977 2.8125,-8.0078 2.8125,-2.9297 7.8711,-2.9297 5.1758,0 7.8906,2.832 2.7344,2.8125 2.7344,8.1055 z m -5.7422,0 q 0,-3.7695 -1.2305,-5.4688 -1.2305,-1.6992 -3.5742,-1.6992 -5,0 -5,7.168 0,3.5352 1.2109,5.3906 1.2305,1.8359 3.5352,1.8359 5.0586,0 5.0586,-7.2266 z"
         id="path1457"
         style="stroke-width:1.00454" />
      <path
         d="m 198.49,193.95 q -0.0781,-0.29297 -0.19532,-1.4648 -0.0976,-1.1914 -0.0976,-1.9726 h -0.0781 q -1.7773,3.8281 -6.7578,3.8281 -3.6914,0 -5.7031,-2.8711 -2.0117,-2.8906 -2.0117,-8.0664 0,-5.2539 2.1094,-8.1055 2.1289,-2.8711 6.0156,-2.8711 2.2461,0 3.8672,0.9375 1.6406,0.9375 2.5195,2.793 h 0.0391 l -0.0391,-3.4766 v -7.7148 h 5.4883 v 24.375 q 0,1.9531 0.15625,4.6094 z m -0.25391,-10.684 q 0,-3.418 -1.1523,-5.2539 -1.1328,-1.8555 -3.3594,-1.8555 -2.207,0 -3.2812,1.7969 -1.0742,1.7774 -1.0742,5.4492 0,7.1875 4.3164,7.1875 2.168,0 3.3594,-1.8945 1.1914,-1.9141 1.1914,-5.4297 z"
         id="path1459"
         style="stroke-width:1.00454" />
      <path
         d="m 218.08,202.43 q -3.8672,0 -6.2305,-1.4844 -2.3438,-1.4648 -2.8906,-4.1992 l 5.4883,-0.64453 q 0.29297,1.2695 1.25,1.9922 0.97656,0.72266 2.5391,0.72266 2.2852,0 3.3398,-1.4062 1.0547,-1.4062 1.0547,-4.1797 v -1.1133 l 0.0391,-2.0898 h -0.0391 q -1.8164,3.8867 -6.7969,3.8867 -3.6914,0 -5.7227,-2.7734 -2.0312,-2.7734 -2.0312,-7.9297 0,-5.1758 2.0898,-7.9883 2.0898,-2.8125 6.0742,-2.8125 4.6094,0 6.3867,3.8086 h 0.0977 q 0,-0.68359 0.0781,-1.8555 0.0977,-1.1719 0.19532,-1.543 h 5.1953 q -0.11719,2.1094 -0.11719,4.8828 v 15.605 q 0,4.5117 -2.5586,6.8164 -2.5586,2.3047 -7.4414,2.3047 z m 4.5898,-19.336 q 0,-3.2617 -1.1719,-5.0781 -1.1523,-1.8359 -3.3008,-1.8359 -4.3945,0 -4.3945,7.0312 0,6.8945 4.3555,6.8945 2.1875,0 3.3398,-1.8164 1.1719,-1.8359 1.1719,-5.1953 z"
         id="path1461"
         style="stroke-width:1.00454" />
      <path
         d="m 242.32,194.34 q -4.7656,0 -7.3242,-2.8125 -2.5586,-2.832 -2.5586,-8.2422 0,-5.2344 2.5977,-8.0469 2.5976,-2.8125 7.3633,-2.8125 4.5508,0 6.9531,3.0273 2.4024,3.0078 2.4024,8.8281 v 0.15625 h -13.555 q 0,3.0859 1.1328,4.668 1.1523,1.5625 3.2617,1.5625 2.9102,0 3.6719,-2.5195 l 5.1758,0.44922 q -2.2461,5.7422 -9.1211,5.7422 z m 0,-18.457 q -1.9336,0 -2.9883,1.3477 -1.0352,1.3476 -1.0938,3.7695 h 8.2031 q -0.15625,-2.5586 -1.2305,-3.8281 -1.0742,-1.2891 -2.8906,-1.2891 z"
         id="path1463"
         style="stroke-width:1.00454" />
      <path
         d="m 255.91,193.95 v -16.172 q 0,-1.7383 -0.0586,-2.8906 -0.0391,-1.1719 -0.0977,-2.0703 h 5.2344 q 0.0586,0.35157 0.15625,2.1484 0.0977,1.7773 0.0977,2.3633 h 0.0781 q 0.80078,-2.2266 1.4258,-3.125 0.625,-0.91797 1.4844,-1.3476 0.85938,-0.44922 2.1484,-0.44922 1.0547,0 1.6992,0.29297 v 4.5898 q -1.3281,-0.29297 -2.3438,-0.29297 -2.0508,0 -3.2031,1.6602 -1.1328,1.6602 -1.1328,4.9219 v 10.371 z"
         id="path1465"
         style="stroke-width:1.00454" />
      <path
         d="m 274.92,192.66 q 0,2.3438 -0.50781,4.1406 -0.48829,1.7969 -1.6016,3.3398 h -3.6133 q 1.1524,-1.3867 1.875,-3.0469 0.72266,-1.6602 0.72266,-3.1445 h -2.5195 v -5.957 h 5.6445 z"
         id="path1467"
         style="stroke-width:1.00454" />
      <path
         d="m 126.6,236.2 q 0,3.6719 -2.6758,5.7227 -2.6758,2.0312 -7.4414,2.0312 h -11.172 v -27.52 h 10 q 9.6875,0 9.6875,6.6797 0,2.4414 -1.3672,4.1016 -1.3672,1.6602 -3.8672,2.2266 3.2812,0.39062 5.0586,2.207 1.7774,1.7969 1.7774,4.5508 z m -5.3516,-12.637 q 0,-2.2266 -1.5234,-3.1836 -1.5234,-0.95703 -4.4141,-0.95703 h -6.2695 v 8.7109 h 6.2695 q 2.9883,0 4.4531,-1.1133 1.4844,-1.1328 1.4844,-3.457 z m 1.582,12.344 q 0,-4.8633 -6.8359,-4.8633 h -6.9531 v 9.9219 h 7.2461 q 3.418,0 4.9805,-1.2695 1.5625,-1.2695 1.5625,-3.7891 z"
         id="path1469"
         style="stroke-width:1.00454" />
      <path
         d="m 132.36,243.95 v -4.2774 h 3.8086 v 4.2774 z"
         id="path1471"
         style="stroke-width:1.00454" />
      <path
         d="m 146.83,219.48 v 10.234 h 15.352 v 3.0859 H 146.83 v 11.152 h -3.7305 v -27.52 h 19.551 v 3.0469 z"
         id="path1473"
         style="stroke-width:1.00454" />
      <path
         d="m 163.47,243.95 v -4.2774 h 3.8086 v 4.2774 z"
         id="path1475"
         style="stroke-width:1.00454" />
      <path
         d="m 184.53,233.56 q 0,-5.6445 1.7578,-10.137 1.7773,-4.4922 5.4492,-8.457 h 3.3984 q -3.6523,4.0625 -5.3711,8.6328 -1.6992,4.5703 -1.6992,10 0,5.4102 1.6797,9.9609 1.6992,4.5508 5.3906,8.6719 h -3.3984 q -3.6914,-3.9844 -5.4492,-8.4766 -1.7578,-4.5117 -1.7578,-10.117 z"
         id="path1477"
         style="stroke-width:1.00454" />
      <path
         d="m 219.94,236.2 q 0,3.6719 -2.6758,5.7227 -2.6758,2.0312 -7.4414,2.0312 h -11.172 v -27.52 h 10 q 9.6875,0 9.6875,6.6797 0,2.4414 -1.3672,4.1016 -1.3672,1.6602 -3.8672,2.2266 3.2812,0.39062 5.0586,2.207 1.7773,1.7969 1.7773,4.5508 z m -5.3516,-12.637 q 0,-2.2266 -1.5234,-3.1836 -1.5234,-0.957 -4.4141,-0.95703 h -6.2695 v 8.7109 h 6.2695 q 2.9883,0 4.4531,-1.1133 1.4844,-1.1328 1.4844,-3.457 z m 1.582,12.344 q 0,-4.8633 -6.8359,-4.8633 h -6.9531 v 9.9219 h 7.2461 q 3.418,0 4.9805,-1.2695 1.5625,-1.2695 1.5625,-3.7891 z"
         id="path1479"
         style="stroke-width:1.00454" />
      <path
         d="m 227.44,234.13 q 0,3.6328 1.5039,5.6055 1.5039,1.9726 4.3945,1.9726 2.2852,0 3.6523,-0.91797 1.3867,-0.91797 1.875,-2.3242 l 3.0859,0.87891 q -1.8945,5 -8.6133,5 -4.6875,0 -7.1484,-2.793 -2.4414,-2.793 -2.4414,-8.3008 0,-5.2344 2.4414,-8.0273 2.4609,-2.793 7.0117,-2.793 9.3164,0 9.3164,11.23 v 0.46875 z m 11.445,-2.6953 q -0.29297,-3.3398 -1.6992,-4.8633 -1.4062,-1.543 -4.043,-1.543 -2.5586,0 -4.0625,1.7188 -1.4844,1.6992 -1.6016,4.6875 z"
         id="path1481"
         style="stroke-width:1.00454" />
      <path
         d="m 260.4,243.95 v -13.398 q 0,-2.0898 -0.41016,-3.2422 -0.41015,-1.1523 -1.3086,-1.6602 -0.89844,-0.50781 -2.6367,-0.50781 -2.5391,0 -4.0039,1.7383 -1.4648,1.7383 -1.4648,4.8242 v 12.246 h -3.5156 v -16.621 q 0,-3.6914 -0.11719,-4.5117 h 3.3203 q 0.0195,0.0977 0.0391,0.52735 0.0195,0.42968 0.0391,0.99609 0.0391,0.54688 0.0781,2.0898 h 0.0586 q 1.2109,-2.1875 2.793,-3.0859 1.6016,-0.91797 3.9648,-0.91797 3.4766,0 5.0781,1.7383 1.6211,1.7188 1.6211,5.7031 v 14.082 z"
         id="path1483"
         style="stroke-width:1.00454" />
      <path
         d="m 277.38,233.64 q 0,5.6445 -1.7774,10.137 -1.7578,4.4922 -5.4297,8.457 h -3.3984 q 3.6719,-4.1016 5.3711,-8.6328 1.6992,-4.5508 1.6992,-10 0,-5.4492 -1.7188,-10 -1.6992,-4.5508 -5.3516,-8.6328 h 3.3984 q 3.6914,3.9844 5.4492,8.4961 1.7578,4.4922 1.7578,10.098 z"
         id="path1485"
         style="stroke-width:1.00454" />
      <path
         d="m 293.45,233.56 q 0,-5.6445 1.7578,-10.137 1.7773,-4.4922 5.4492,-8.457 h 3.3984 q -3.6523,4.0625 -5.3711,8.6328 -1.6992,4.5703 -1.6992,10 0,5.4102 1.6797,9.9609 1.6992,4.5508 5.3906,8.6719 h -3.3984 q -3.6914,-3.9844 -5.4492,-8.4766 -1.7578,-4.5117 -1.7578,-10.117 z"
         id="path1487"
         style="stroke-width:1.00454" />
      <path
         d="m 319.29,243.95 v -13.398 q 0,-3.0664 -0.83985,-4.2383 -0.83984,-1.1719 -3.0273,-1.1719 -2.2461,0 -3.5547,1.7188 -1.3086,1.7188 -1.3086,4.8438 v 12.246 h -3.4961 v -16.621 q 0,-3.6914 -0.11719,-4.5117 h 3.3203 q 0.0195,0.0977 0.0391,0.52735 0.0195,0.42968 0.0391,0.99609 0.0391,0.54688 0.0781,2.0898 h 0.0586 q 1.1328,-2.2461 2.5977,-3.125 1.4648,-0.8789 3.5742,-0.8789 2.4023,0 3.7891,0.95703 1.4062,0.95703 1.9531,3.0469 h 0.0586 q 1.0938,-2.1289 2.6367,-3.0664 1.5625,-0.9375 3.7695,-0.9375 3.2031,0 4.6484,1.7383 1.4648,1.7383 1.4648,5.7031 v 14.082 h -3.4766 v -13.398 q 0,-3.0664 -0.83984,-4.2383 -0.83985,-1.1719 -3.0274,-1.1719 -2.3047,0 -3.5938,1.7188 -1.2695,1.6992 -1.2695,4.8438 v 12.246 z"
         id="path1489"
         style="stroke-width:1.00454" />
      <path
         d="m 348.45,233.64 q 0,5.6445 -1.7773,10.137 -1.7578,4.4922 -5.4297,8.457 h -3.3984 q 3.6719,-4.1016 5.3711,-8.6328 1.6992,-4.5508 1.6992,-10 0,-5.4492 -1.7188,-10 -1.6992,-4.5508 -5.3516,-8.6328 h 3.3984 q 3.6914,3.9844 5.4492,8.4961 1.7578,4.4922 1.7578,10.098 z"
         id="path1491"
         style="stroke-width:1.00454" />
    </g>
    <g
       transform="translate(122.38,-10.476)"
       aria-label="8  Amersfoort"
       id="g1517"
       style="stroke-width:1.00454">
      <path
         d="m 274.88,186.2 q 0,3.8672 -2.5586,6.0156 -2.5586,2.1289 -7.3047,2.1289 -4.707,0 -7.3047,-2.1289 -2.5781,-2.1289 -2.5781,-5.9766 0,-2.6367 1.5234,-4.4336 1.5234,-1.8164 4.082,-2.2461 v -0.0781 q -2.2266,-0.48828 -3.5938,-2.207 -1.3672,-1.71872 -1.3672,-3.9648 0,-3.3789 2.3828,-5.332 2.4024,-1.9531 6.7774,-1.9531 4.4726,0 6.8555,1.9141 2.4023,1.8945 2.4023,5.4102 0,2.2461 -1.3672,3.9453 -1.3476,1.6992 -3.6328,2.1484 v 0.0781 q 2.6562,0.42969 4.1602,2.1875 1.5234,1.7383 1.5234,4.4922 z m -6.3281,-12.559 q 0,-1.9531 -0.89844,-2.8516 -0.89844,-0.91797 -2.7148,-0.91797 -3.5547,0 -3.5547,3.7695 0,3.9453 3.5938,3.9453 1.7969,0 2.6758,-0.91797 0.89844,-0.91797 0.89844,-3.0273 z m 0.64453,12.109 q 0,-4.3164 -4.2969,-4.3164 -1.9922,0 -3.0664,1.1328 -1.0547,1.1328 -1.0547,3.2617 0,2.4219 1.0547,3.5352 1.0547,1.1133 3.2226,1.1133 2.1289,0 3.125,-1.1133 1.0156,-1.1133 1.0156,-3.6133 z"
         id="path1495"
         style="stroke-width:1.00454" />
      <path
         d="m 103.29,293.95 -3.1445,-8.0469 h -12.539 l -3.1641,8.0469 h -3.8672 l 11.23,-27.52 h 4.2383 l 11.055,27.52 z m -9.4141,-24.707 -0.17578,0.54688 q -0.48828,1.6211 -1.4453,4.1602 l -3.5156,9.043 h 10.293 l -3.5352,-9.082 q -0.54688,-1.3476 -1.0938,-3.0469 z"
         id="path1497"
         style="stroke-width:1.00454" />
      <path
         d="m 122.18,293.95 v -13.398 q 0,-3.0664 -0.83984,-4.2383 -0.83985,-1.1719 -3.0274,-1.1719 -2.2461,0 -3.5547,1.7188 -1.3086,1.7188 -1.3086,4.8438 v 12.246 h -3.4961 v -16.621 q 0,-3.6914 -0.11719,-4.5117 h 3.3203 q 0.0195,0.0977 0.0391,0.52735 0.0195,0.42968 0.0391,0.99609 0.0391,0.54688 0.0781,2.0898 h 0.0586 q 1.1328,-2.2461 2.5976,-3.125 1.4648,-0.8789 3.5742,-0.8789 2.4024,0 3.7891,0.95703 1.4062,0.95703 1.9531,3.0469 h 0.0586 q 1.0938,-2.1289 2.6367,-3.0664 1.5625,-0.9375 3.7695,-0.9375 3.2031,0 4.6484,1.7383 1.4648,1.7383 1.4648,5.7031 v 14.082 h -3.4766 v -13.398 q 0,-3.0664 -0.83984,-4.2383 -0.83985,-1.1719 -3.0274,-1.1719 -2.3047,0 -3.5938,1.7188 -1.2695,1.6992 -1.2695,4.8438 v 12.246 z"
         id="path1499"
         style="stroke-width:1.00454" />
      <path
         d="m 145.89,284.13 q 0,3.6328 1.5039,5.6055 1.5039,1.9726 4.3945,1.9726 2.2852,0 3.6523,-0.91797 1.3867,-0.91797 1.875,-2.3242 l 3.0859,0.87891 q -1.8945,5 -8.6133,5 -4.6875,0 -7.1484,-2.793 -2.4414,-2.793 -2.4414,-8.3008 0,-5.2344 2.4414,-8.0273 2.4609,-2.793 7.0117,-2.793 9.3164,0 9.3164,11.23 v 0.46875 z m 11.445,-2.6953 q -0.29297,-3.3398 -1.6992,-4.8633 -1.4062,-1.543 -4.043,-1.543 -2.5586,0 -4.0625,1.7188 -1.4844,1.6992 -1.6016,4.6875 z"
         id="path1501"
         style="stroke-width:1.00454" />
      <path
         d="m 165.52,293.95 v -16.211 q 0,-2.2266 -0.11718,-4.9219 h 3.3203 q 0.15625,3.5938 0.15625,4.3164 h 0.0781 q 0.83985,-2.7148 1.9336,-3.7109 1.0938,-0.99609 3.0859,-0.99609 0.70312,0 1.4258,0.19531 v 3.2227 q -0.70313,-0.19532 -1.875,-0.19532 -2.1875,0 -3.3398,1.8945 -1.1523,1.875 -1.1523,5.3906 v 11.016 z"
         id="path1503"
         style="stroke-width:1.00454" />
      <path
         d="m 194.62,288.11 q 0,2.9883 -2.2656,4.6094 -2.2461,1.6211 -6.3086,1.6211 -3.9453,0 -6.0938,-1.2891 -2.1289,-1.3086 -2.7734,-4.0625 l 3.1055,-0.60547 q 0.44922,1.6992 1.8555,2.5 1.4062,0.78125 3.9062,0.78125 2.6758,0 3.9062,-0.82031 1.25,-0.82032 1.25,-2.4609 0,-1.25 -0.85938,-2.0312 -0.85937,-0.78125 -2.7734,-1.2891 l -2.5195,-0.66407 q -3.0273,-0.78125 -4.3164,-1.5234 -1.2695,-0.76172 -1.9922,-1.8359 -0.7227,-1.07418 -0.72266,-2.6367 0,-2.8906 2.0508,-4.3945 2.0703,-1.5234 6.0156,-1.5234 3.4961,0 5.5469,1.2305 2.0703,1.2305 2.6172,3.9453 l -3.1641,0.39063 q -0.29297,-1.4062 -1.582,-2.1484 -1.2695,-0.76172 -3.418,-0.76172 -2.3828,0 -3.5156,0.72266 -1.1328,0.72265 -1.1328,2.1875 0,0.89844 0.46875,1.4844 0.46875,0.58594 1.3867,0.9961 0.91797,0.41015 3.8672,1.1328 2.793,0.70312 4.0234,1.3086 1.2305,0.58594 1.9336,1.3086 0.72266,0.72265 1.1133,1.6797 0.39063,0.9375 0.39063,2.1484 z"
         id="path1505"
         style="stroke-width:1.00454" />
      <path
         d="m 203.12,275.38 v 18.574 h -3.5156 V 275.38 h -2.9688 v -2.5586 h 2.9688 v -2.3828 q 0,-2.8906 1.2695,-4.1602 1.2695,-1.2695 3.8867,-1.2695 1.4648,0 2.4805,0.23438 v 2.6758 q -0.8789,-0.15625 -1.5625,-0.15625 -1.3476,0 -1.9531,0.68359 -0.60547,0.6836 -0.60547,2.4805 v 1.8945 h 4.1211 v 2.5586 z"
         id="path1507"
         style="stroke-width:1.00454" />
      <path
         d="m 227.75,283.36 q 0,5.5469 -2.4414,8.2617 -2.4414,2.7148 -7.0898,2.7148 -4.6289,0 -6.9922,-2.8125 -2.3633,-2.832 -2.3633,-8.1641 0,-10.938 9.4726,-10.938 4.8438,0 7.1289,2.6758 2.2852,2.6562 2.2852,8.2617 z m -3.6914,0 q 0,-4.375 -1.3086,-6.3477 -1.2891,-1.9922 -4.3555,-1.9922 -3.0859,0 -4.4727,2.0312 -1.3672,2.0117 -1.3672,6.3086 0,4.1797 1.3477,6.2891 1.3672,2.0898 4.2773,2.0898 3.1641,0 4.5117,-2.0312 1.3672,-2.0312 1.3672,-6.3476 z"
         id="path1509"
         style="stroke-width:1.00454" />
      <path
         d="m 249.99,283.36 q 0,5.5469 -2.4414,8.2617 -2.4414,2.7148 -7.0898,2.7148 -4.6289,0 -6.9922,-2.8125 -2.3633,-2.832 -2.3633,-8.1641 0,-10.938 9.4727,-10.938 4.8438,0 7.1289,2.6758 2.2852,2.6562 2.2852,8.2617 z m -3.6914,0 q 0,-4.375 -1.3086,-6.3477 -1.2891,-1.9922 -4.3555,-1.9922 -3.0859,0 -4.4726,2.0312 -1.3672,2.0117 -1.3672,6.3086 0,4.1797 1.3476,6.2891 1.3672,2.0898 4.2774,2.0898 3.1641,0 4.5117,-2.0312 1.3672,-2.0312 1.3672,-6.3476 z"
         id="path1511"
         style="stroke-width:1.00454" />
      <path
         d="m 254.45,293.95 v -16.211 q 0,-2.2266 -0.11719,-4.9219 h 3.3203 q 0.15625,3.5938 0.15625,4.3164 h 0.0781 q 0.83984,-2.7148 1.9336,-3.7109 1.0938,-0.99609 3.0859,-0.99609 0.70312,0 1.4258,0.19531 v 3.2227 q -0.70313,-0.19532 -1.875,-0.19532 -2.1875,0 -3.3398,1.8945 -1.1523,1.875 -1.1523,5.3906 v 11.016 z"
         id="path1513"
         style="stroke-width:1.00454" />
      <path
         d="m 275.81,293.79 q -1.7383,0.46875 -3.5547,0.46875 -4.2188,0 -4.2188,-4.7852 v -14.102 h -2.4414 v -2.5586 h 2.5781 l 1.0352,-4.7266 h 2.3438 v 4.7266 h 3.9062 v 2.5586 h -3.9062 v 13.34 q 0,1.5234 0.48828,2.1484 0.50781,0.60547 1.7383,0.60547 0.70313,0 2.0312,-0.27344 z"
         id="path1515"
         style="stroke-width:1.00454" />
    </g>
  </g>
</svg>
